hintordertest_dMM.ufo
<glyph name="uni001E" format="2">
  <advance width="928"/>
  <unicode hex="001E"/>
  <outline>
    <contour>
      <point x="809" y="724" type="curve" smooth="yes"/>
      <point x="769" y="724"/>
      <point x="745" y="756"/>
      <point x="745" y="790" type="curve" smooth="yes"/>
      <point x="745" y="824"/>
      <point x="769" y="856"/>
      <point x="809" y="856" type="curve" smooth="yes"/>
      <point x="849" y="856"/>
      <point x="873" y="824"/>
      <point x="873" y="790" type="curve" smooth="yes"/>
      <point x="873" y="756"/>
      <point x="849" y="724"/>
    </contour>
    <contour>
      <point x="809" y="702" type="curve" smooth="yes"/>
      <point x="852" y="702"/>
      <point x="898" y="736"/>
      <point x="898" y="790" type="curve" smooth="yes"/>
      <point x="898" y="845"/>
      <point x="852" y="879"/>
      <point x="809" y="879" type="curve" smooth="yes"/>
      <point x="766" y="879"/>
      <point x="720" y="845"/>
      <point x="720" y="790" type="curve" smooth="yes"/>
      <point x="720" y="736"/>
      <point x="766" y="702"/>
    </contour>
    <contour>
      <point x="343" y="-16" type="curve" smooth="yes"/>
      <point x="403" y="-16"/>
      <point x="461" y="-5"/>
      <point x="518" y="32" type="curve"/>
      <point x="528" y="188" type="line"/>
      <point x="511" y="188" type="line"/>
      <point x="453" y="20" type="line"/>
      <point x="499" y="28" type="line"/>
      <point x="499" y="55" type="line"/>
      <point x="446" y="12"/>
      <point x="389" y="5"/>
      <point x="345" y="5" type="curve" smooth="yes"/>
      <point x="219" y="5"/>
      <point x="127" y="121"/>
      <point x="127" y="334" type="curve" smooth="yes"/>
      <point x="127" y="546"/>
      <point x="227" y="665"/>
      <point x="348" y="665" type="curve" smooth="yes"/>
      <point x="396" y="665"/>
      <point x="442" y="656"/>
      <point x="495" y="616" type="curve"/>
      <point x="491" y="642" type="line"/>
      <point x="445" y="651" type="line"/>
      <point x="504" y="484" type="line"/>
      <point x="520" y="484" type="line"/>
      <point x="510" y="639" type="line"/>
      <point x="453" y="679"/>
      <point x="390" y="686"/>
      <point x="344" y="686" type="curve" smooth="yes"/>
      <point x="177" y="686"/>
      <point x="47" y="549"/>
      <point x="47" y="336" type="curve" smooth="yes"/>
      <point x="47" y="119"/>
      <point x="170" y="-16"/>
    </contour>
  </outline>
</glyph>
<glyph name="uni001E" format="2">
  <advance width="1263"/>
  <unicode hex="001E"/>
  <outline>
    <contour>
      <point x="1086" y="675" type="curve" smooth="yes"/>
      <point x="1112" y="675"/>
      <point x="1134" y="695"/>
      <point x="1134" y="724" type="curve" smooth="yes"/>
      <point x="1134" y="753"/>
      <point x="1112" y="772"/>
      <point x="1086" y="772" type="curve" smooth="yes"/>
      <point x="1059" y="772"/>
      <point x="1037" y="753"/>
      <point x="1037" y="724" type="curve" smooth="yes"/>
      <point x="1037" y="695"/>
      <point x="1059" y="675"/>
    </contour>
    <contour>
      <point x="1266" y="675" type="curve" smooth="yes"/>
      <point x="1293" y="675"/>
      <point x="1315" y="695"/>
      <point x="1315" y="724" type="curve" smooth="yes"/>
      <point x="1315" y="753"/>
      <point x="1293" y="772"/>
      <point x="1266" y="772" type="curve" smooth="yes"/>
      <point x="1240" y="772"/>
      <point x="1218" y="753"/>
      <point x="1218" y="724" type="curve" smooth="yes"/>
      <point x="1218" y="695"/>
      <point x="1240" y="675"/>
    </contour>
    <contour>
      <point x="577" y="-131" type="curve" smooth="yes"/>
      <point x="621" y="-131"/>
      <point x="648" y="-111"/>
      <point x="682" y="-67" type="curve" smooth="yes"/>
      <point x="723" y="-16"/>
      <point x="729" y="49"/>
      <point x="729" y="230" type="curve" smooth="yes"/>
      <point x="729" y="360" type="line" smooth="yes"/>
      <point x="729" y="465"/>
      <point x="729" y="570"/>
      <point x="733" y="670" type="curve"/>
      <point x="655" y="670" type="line"/>
      <point x="658" y="471"/>
      <point x="665" y="272"/>
      <point x="665" y="146" type="curve" smooth="yes"/>
      <point x="665" y="0"/>
      <point x="658" y="-46"/>
      <point x="627" y="-101" type="curve"/>
      <point x="627" y="-110" type="line"/>
      <point x="637" y="-110" type="line"/>
      <point x="637" y="-96" type="line"/>
      <point x="609" y="-73" type="line" smooth="yes"/>
      <point x="590" y="-58"/>
      <point x="577" y="-49"/>
      <point x="553" y="-49" type="curve" smooth="yes"/>
      <point x="527" y="-49"/>
      <point x="508" y="-66"/>
      <point x="506" y="-87" type="curve"/>
      <point x="511" y="-116"/>
      <point x="538" y="-131"/>
    </contour>
    <contour>
      <point x="562" y="654" type="line"/>
      <point x="678" y="642" type="line"/>
      <point x="708" y="642" type="line"/>
      <point x="812" y="654" type="line"/>
      <point x="812" y="670" type="line"/>
      <point x="562" y="670" type="line"/>
    </contour>
  </outline>
</glyph>
<glyph name="uni001E" format="2">
  <advance width="976"/>
  <unicode hex="001E"/>
  <outline>
    <contour>
      <point x="119" y="0" type="curve"/>
      <point x="198" y="0" type="line"/>
      <point x="194" y="80"/>
      <point x="194" y="210"/>
      <point x="194" y="316" type="curve" smooth="yes"/>
      <point x="194" y="360" type="line" smooth="yes"/>
      <point x="194" y="463"/>
      <point x="194" y="590"/>
      <point x="198" y="670" type="curve"/>
      <point x="119" y="670" type="line"/>
      <point x="123" y="590"/>
      <point x="123" y="463"/>
      <point x="123" y="360" type="curve" smooth="yes"/>
      <point x="123" y="316" type="line" smooth="yes"/>
      <point x="123" y="210"/>
      <point x="123" y="80"/>
    </contour>
    <contour>
      <point x="39" y="0" type="line"/>
      <point x="277" y="0" type="line"/>
      <point x="277" y="16" type="line"/>
      <point x="173" y="28" type="line"/>
      <point x="143" y="28" type="line"/>
      <point x="39" y="16" type="line"/>
    </contour>
    <contour>
      <point x="39" y="654" type="line"/>
      <point x="143" y="642" type="line"/>
      <point x="173" y="642" type="line"/>
      <point x="277" y="654" type="line"/>
      <point x="277" y="670" type="line"/>
      <point x="39" y="670" type="line"/>
    </contour>
    <contour>
      <point x="380" y="0" type="line"/>
      <point x="598" y="0" type="line"/>
      <point x="598" y="16" type="line"/>
      <point x="513" y="28" type="line"/>
      <point x="483" y="28" type="line"/>
      <point x="380" y="16" type="line"/>
    </contour>
    <contour>
      <point x="893" y="692" type="curve" smooth="yes"/>
      <point x="922" y="692"/>
      <point x="946" y="712"/>
      <point x="946" y="745" type="curve" smooth="yes"/>
      <point x="946" y="777"/>
      <point x="922" y="797"/>
      <point x="893" y="797" type="curve" smooth="yes"/>
      <point x="864" y="797"/>
      <point x="840" y="777"/>
      <point x="840" y="745" type="curve" smooth="yes"/>
      <point x="840" y="712"/>
      <point x="864" y="692"/>
    </contour>
    <contour>
      <point x="373" y="654" type="line"/>
      <point x="477" y="642" type="line"/>
      <point x="504" y="642" type="line"/>
      <point x="593" y="654" type="line"/>
      <point x="593" y="670" type="line"/>
      <point x="373" y="670" type="line"/>
    </contour>
    <contour>
      <point x="152" y="182" type="line"/>
      <point x="528" y="670" type="line"/>
      <point x="496" y="670" type="line"/>
      <point x="181" y="254" type="line"/>
      <point x="169" y="239" type="line"/>
      <point x="152" y="239" type="line"/>
    </contour>
    <contour>
      <point x="471" y="0" type="line"/>
      <point x="550" y="0" type="line"/>
      <point x="322" y="422" type="line"/>
      <point x="276" y="370" type="line"/>
    </contour>
  </outline>
</glyph>
<glyph name="uni001E" format="2">
  <advance width="1176"/>
  <unicode hex="001E"/>
  <outline>
    <contour>
      <point x="39" y="0" type="line"/>
      <point x="236" y="0" type="line"/>
      <point x="236" y="16" type="line"/>
      <point x="145" y="26" type="line"/>
      <point x="131" y="26" type="line"/>
      <point x="39" y="16" type="line"/>
    </contour>
    <contour>
      <point x="39" y="654" type="line"/>
      <point x="143" y="642" type="line"/>
      <point x="147" y="642" type="line"/>
      <point x="147" y="670" type="line"/>
      <point x="39" y="670" type="line"/>
    </contour>
    <contour>
      <point x="1057" y="706" type="curve" smooth="yes"/>
      <point x="1017" y="706"/>
      <point x="993" y="738"/>
      <point x="993" y="772" type="curve" smooth="yes"/>
      <point x="993" y="806"/>
      <point x="1017" y="838"/>
      <point x="1057" y="838" type="curve" smooth="yes"/>
      <point x="1097" y="838"/>
      <point x="1121" y="806"/>
      <point x="1121" y="772" type="curve" smooth="yes"/>
      <point x="1121" y="738"/>
      <point x="1097" y="706"/>
    </contour>
    <contour>
      <point x="1057" y="684" type="curve" smooth="yes"/>
      <point x="1100" y="684"/>
      <point x="1146" y="718"/>
      <point x="1146" y="772" type="curve" smooth="yes"/>
      <point x="1146" y="827"/>
      <point x="1100" y="861"/>
      <point x="1057" y="861" type="curve" smooth="yes"/>
      <point x="1014" y="861"/>
      <point x="968" y="827"/>
      <point x="968" y="772" type="curve" smooth="yes"/>
      <point x="968" y="718"/>
      <point x="1014" y="684"/>
    </contour>
    <contour>
      <point x="124" y="0" type="line"/>
      <point x="151" y="0" type="line"/>
      <point x="151" y="360" type="line"/>
      <point x="151" y="660" type="line"/>
      <point x="124" y="660" type="line"/>
    </contour>
    <contour>
      <point x="374" y="0" type="line"/>
      <point x="396" y="0" type="line"/>
      <point x="622" y="617" type="line"/>
      <point x="625" y="624" type="line"/>
      <point x="631" y="624" type="line"/>
      <point x="631" y="670" type="line"/>
      <point x="613" y="670" type="line"/>
      <point x="403" y="96" type="line"/>
      <point x="399" y="84" type="line"/>
      <point x="419" y="84" type="line"/>
      <point x="207" y="670" type="line"/>
      <point x="129" y="670" type="line"/>
      <point x="129" y="617" type="line"/>
      <point x="148" y="617" type="line"/>
    </contour>
    <contour>
      <point x="542" y="0" type="line"/>
      <point x="772" y="0" type="line"/>
      <point x="772" y="16" type="line"/>
      <point x="668" y="28" type="line"/>
      <point x="638" y="28" type="line"/>
      <point x="542" y="16" type="line"/>
    </contour>
    <contour>
      <point x="613" y="0" type="curve"/>
      <point x="693" y="0" type="line"/>
      <point x="689" y="80"/>
      <point x="689" y="210"/>
      <point x="689" y="316" type="curve" smooth="yes"/>
      <point x="689" y="360" type="line" smooth="yes"/>
      <point x="689" y="463"/>
      <point x="689" y="590"/>
      <point x="693" y="670" type="curve"/>
      <point x="618" y="670" type="line"/>
      <point x="618" y="316" type="line" smooth="yes"/>
      <point x="618" y="210"/>
      <point x="617" y="80"/>
    </contour>
    <contour>
      <point x="638" y="642" type="line"/>
      <point x="668" y="642" type="line"/>
      <point x="772" y="654" type="line"/>
      <point x="772" y="670" type="line"/>
      <point x="638" y="670" type="line"/>
    </contour>
  </outline>
</glyph>
<glyph name="uni001E" format="2">
  <advance width="1033"/>
  <unicode hex="001E"/>
  <outline>
    <contour>
      <point x="185" y="0" type="line"/>
      <point x="390" y="0" type="line"/>
      <point x="390" y="16" type="line"/>
      <point x="291" y="26" type="line"/>
      <point x="277" y="26" type="line"/>
      <point x="185" y="16" type="line"/>
    </contour>
    <contour>
      <point x="270" y="0" type="line"/>
      <point x="298" y="0" type="line"/>
      <point x="298" y="335" type="line"/>
      <point x="298" y="657" type="line"/>
      <point x="270" y="657" type="line"/>
    </contour>
    <contour>
      <point x="580" y="654" type="line"/>
      <point x="679" y="644" type="line"/>
      <point x="693" y="644" type="line"/>
      <point x="777" y="654" type="line"/>
      <point x="777" y="670" type="line"/>
      <point x="580" y="670" type="line"/>
    </contour>
    <contour>
      <point x="973" y="700" type="line"/>
      <point x="1013" y="700" type="line"/>
      <point x="1021" y="883" type="line"/>
      <point x="965" y="883" type="line"/>
    </contour>
    <contour>
      <point x="681" y="-8" type="line"/>
      <point x="701" y="-8" type="line"/>
      <point x="701" y="670" type="line"/>
      <point x="673" y="670" type="line"/>
      <point x="673" y="335" type="line"/>
      <point x="673" y="132" type="line"/>
      <point x="676" y="132" type="line"/>
      <point x="321" y="670" type="line"/>
      <point x="185" y="670" type="line"/>
      <point x="185" y="654" type="line"/>
      <point x="250" y="646" type="line"/>
      <point x="297" y="574" type="line"/>
      <point x="298" y="574" type="line"/>
    </contour>
  </outline>
</glyph>
<glyph name="uni001E" format="2">
  <advance width="1141"/>
  <unicode hex="001E"/>
  <outline>
    <contour>
      <point x="882" y="704" type="curve" smooth="yes"/>
      <point x="908" y="704"/>
      <point x="930" y="724"/>
      <point x="930" y="753" type="curve" smooth="yes"/>
      <point x="930" y="782"/>
      <point x="908" y="801"/>
      <point x="882" y="801" type="curve" smooth="yes"/>
      <point x="855" y="801"/>
      <point x="833" y="782"/>
      <point x="833" y="753" type="curve" smooth="yes"/>
      <point x="833" y="724"/>
      <point x="855" y="704"/>
    </contour>
    <contour>
      <point x="1062" y="704" type="curve" smooth="yes"/>
      <point x="1089" y="704"/>
      <point x="1111" y="724"/>
      <point x="1111" y="753" type="curve" smooth="yes"/>
      <point x="1111" y="782"/>
      <point x="1089" y="801"/>
      <point x="1062" y="801" type="curve" smooth="yes"/>
      <point x="1036" y="801"/>
      <point x="1014" y="782"/>
      <point x="1014" y="753" type="curve" smooth="yes"/>
      <point x="1014" y="724"/>
      <point x="1036" y="704"/>
    </contour>
    <contour>
      <point x="320" y="-16" type="curve" smooth="yes"/>
      <point x="465" y="-16"/>
      <point x="593" y="112"/>
      <point x="593" y="332" type="curve" smooth="yes"/>
      <point x="593" y="560"/>
      <point x="466" y="686"/>
      <point x="320" y="686" type="curve" smooth="yes"/>
      <point x="175" y="686"/>
      <point x="47" y="555"/>
      <point x="47" y="336" type="curve" smooth="yes"/>
      <point x="47" y="107"/>
      <point x="174" y="-16"/>
    </contour>
    <contour>
      <point x="320" y="6" type="curve" smooth="yes"/>
      <point x="186" y="6"/>
      <point x="127" y="152"/>
      <point x="127" y="336" type="curve" smooth="yes"/>
      <point x="127" y="520"/>
      <point x="186" y="664"/>
      <point x="320" y="664" type="curve" smooth="yes"/>
      <point x="454" y="664"/>
      <point x="513" y="515"/>
      <point x="513" y="332" type="curve" smooth="yes"/>
      <point x="513" y="147"/>
      <point x="454" y="6"/>
    </contour>
  </outline>
</glyph>
<glyph name="uni001E" format="2">
  <advance width="1504"/>
  <unicode hex="001E"/>
  <outline>
    <contour>
      <point x="762" y="-16" type="curve" smooth="yes"/>
      <point x="885" y="-16"/>
      <point x="972" y="53"/>
      <point x="972" y="241" type="curve" smooth="yes"/>
      <point x="972" y="670" type="line"/>
      <point x="945" y="670" type="line"/>
      <point x="945" y="247" type="line" smooth="yes"/>
      <point x="945" y="78"/>
      <point x="876" y="29"/>
      <point x="770" y="29" type="curve" smooth="yes"/>
      <point x="676" y="29"/>
      <point x="609" y="85"/>
      <point x="609" y="237" type="curve" smooth="yes"/>
      <point x="609" y="360" type="line" smooth="yes"/>
      <point x="609" y="463"/>
      <point x="609" y="590"/>
      <point x="613" y="670" type="curve"/>
      <point x="534" y="670" type="line"/>
      <point x="538" y="590"/>
      <point x="538" y="463"/>
      <point x="538" y="360" type="curve" smooth="yes"/>
      <point x="538" y="225" type="line" smooth="yes"/>
      <point x="538" y="50"/>
      <point x="635" y="-16"/>
    </contour>
    <contour>
      <point x="462" y="654" type="line"/>
      <point x="559" y="642" type="line"/>
      <point x="589" y="642" type="line"/>
      <point x="692" y="654" type="line"/>
      <point x="692" y="670" type="line"/>
      <point x="462" y="670" type="line"/>
    </contour>
    <contour>
      <point x="1330" y="675" type="curve" smooth="yes"/>
      <point x="1356" y="675"/>
      <point x="1378" y="695"/>
      <point x="1378" y="724" type="curve" smooth="yes"/>
      <point x="1378" y="753"/>
      <point x="1356" y="772"/>
      <point x="1330" y="772" type="curve" smooth="yes"/>
      <point x="1303" y="772"/>
      <point x="1281" y="753"/>
      <point x="1281" y="724" type="curve" smooth="yes"/>
      <point x="1281" y="695"/>
      <point x="1303" y="675"/>
    </contour>
    <contour>
      <point x="1510" y="675" type="curve" smooth="yes"/>
      <point x="1537" y="675"/>
      <point x="1559" y="695"/>
      <point x="1559" y="724" type="curve" smooth="yes"/>
      <point x="1559" y="753"/>
      <point x="1537" y="772"/>
      <point x="1510" y="772" type="curve" smooth="yes"/>
      <point x="1484" y="772"/>
      <point x="1462" y="753"/>
      <point x="1462" y="724" type="curve" smooth="yes"/>
      <point x="1462" y="695"/>
      <point x="1484" y="675"/>
    </contour>
    <contour>
      <point x="861" y="654" type="line"/>
      <point x="953" y="644" type="line"/>
      <point x="965" y="644" type="line"/>
      <point x="1046" y="654" type="line"/>
      <point x="1046" y="670" type="line"/>
      <point x="861" y="670" type="line"/>
    </contour>
  </outline>
</glyph>
<glyph name="uni001E" format="2">
  <advance width="920"/>
  <unicode hex="001E"/>
  <outline>
    <contour>
      <point x="837" y="692" type="curve" smooth="yes"/>
      <point x="866" y="692"/>
      <point x="890" y="712"/>
      <point x="890" y="745" type="curve" smooth="yes"/>
      <point x="890" y="777"/>
      <point x="866" y="797"/>
      <point x="837" y="797" type="curve" smooth="yes"/>
      <point x="808" y="797"/>
      <point x="784" y="777"/>
      <point x="784" y="745" type="curve" smooth="yes"/>
      <point x="784" y="712"/>
      <point x="808" y="692"/>
    </contour>
    <contour>
      <point x="295" y="-8" type="line"/>
      <point x="321" y="-8" type="line"/>
      <point x="541" y="670" type="line"/>
      <point x="510" y="670" type="line"/>
      <point x="325" y="84" type="line"/>
      <point x="322" y="75" type="line"/>
      <point x="336" y="75" type="line"/>
      <point x="151" y="670" type="line"/>
      <point x="72" y="670" type="line"/>
    </contour>
    <contour>
      <point x="12" y="654" type="line"/>
      <point x="96" y="642" type="line"/>
      <point x="138" y="642" type="line"/>
      <point x="246" y="654" type="line"/>
      <point x="246" y="670" type="line"/>
      <point x="12" y="670" type="line"/>
    </contour>
    <contour>
      <point x="409" y="654" type="line"/>
      <point x="504" y="644" type="line"/>
      <point x="524" y="644" type="line"/>
      <point x="600" y="654" type="line"/>
      <point x="600" y="670" type="line"/>
      <point x="409" y="670" type="line"/>
    </contour>
  </outline>
</glyph>
<glyph name="uni001E" format="2">
  <advance width="1716"/>
  <unicode hex="001E"/>
  <outline>
    <contour>
      <point x="560" y="-6" type="line"/>
      <point x="591" y="-6" type="line"/>
      <point x="762" y="575" type="line"/>
      <point x="766" y="587" type="line"/>
      <point x="747" y="587" type="line"/>
      <point x="914" y="-6" type="line"/>
      <point x="944" y="-6" type="line"/>
      <point x="1130" y="670" type="line"/>
      <point x="1098" y="670" type="line"/>
      <point x="950" y="111" type="line"/>
      <point x="946" y="94" type="line"/>
      <point x="965" y="94" type="line"/>
      <point x="801" y="670" type="line"/>
      <point x="763" y="670" type="line"/>
      <point x="596" y="110" type="line"/>
      <point x="591" y="94" type="line"/>
      <point x="610" y="94" type="line"/>
      <point x="466" y="670" type="line"/>
      <point x="385" y="670" type="line"/>
    </contour>
    <contour>
      <point x="1481" y="676" type="line"/>
      <point x="1701" y="676" type="line"/>
      <point x="1701" y="724" type="line"/>
      <point x="1481" y="724" type="line"/>
    </contour>
    <contour>
      <point x="325" y="654" type="line"/>
      <point x="417" y="642" type="line"/>
      <point x="440" y="642" type="line"/>
      <point x="563" y="654" type="line"/>
      <point x="563" y="670" type="line"/>
      <point x="325" y="670" type="line"/>
    </contour>
    <contour>
      <point x="672" y="654" type="line"/>
      <point x="757" y="645" type="line"/>
      <point x="784" y="642" type="line"/>
      <point x="892" y="654" type="line"/>
      <point x="892" y="670" type="line"/>
      <point x="672" y="670" type="line"/>
    </contour>
    <contour>
      <point x="996" y="654" type="line"/>
      <point x="1099" y="644" type="line"/>
      <point x="1112" y="644" type="line"/>
      <point x="1191" y="654" type="line"/>
      <point x="1191" y="670" type="line"/>
      <point x="996" y="670" type="line"/>
    </contour>
  </outline>
</glyph>
<glyph name="uni001E" format="2">
  <advance width="968"/>
  <unicode hex="001E"/>
  <outline>
    <contour>
      <point x="12" y="0" type="line"/>
      <point x="207" y="0" type="line"/>
      <point x="207" y="16" type="line"/>
      <point x="120" y="26" type="line"/>
      <point x="92" y="26" type="line"/>
      <point x="12" y="16" type="line"/>
    </contour>
    <contour>
      <point x="849" y="706" type="curve" smooth="yes"/>
      <point x="809" y="706"/>
      <point x="785" y="738"/>
      <point x="785" y="772" type="curve" smooth="yes"/>
      <point x="785" y="806"/>
      <point x="809" y="838"/>
      <point x="849" y="838" type="curve" smooth="yes"/>
      <point x="889" y="838"/>
      <point x="913" y="806"/>
      <point x="913" y="772" type="curve" smooth="yes"/>
      <point x="913" y="738"/>
      <point x="889" y="706"/>
    </contour>
    <contour>
      <point x="849" y="684" type="curve" smooth="yes"/>
      <point x="892" y="684"/>
      <point x="938" y="718"/>
      <point x="938" y="772" type="curve" smooth="yes"/>
      <point x="938" y="827"/>
      <point x="892" y="861"/>
      <point x="849" y="861" type="curve" smooth="yes"/>
      <point x="806" y="861"/>
      <point x="760" y="827"/>
      <point x="760" y="772" type="curve" smooth="yes"/>
      <point x="760" y="718"/>
      <point x="806" y="684"/>
    </contour>
    <contour>
      <point x="73" y="0" type="line"/>
      <point x="105" y="0" type="line"/>
      <point x="295" y="320" type="line"/>
      <point x="302" y="331" type="line"/>
      <point x="314" y="331" type="line"/>
      <point x="283" y="349" type="line"/>
    </contour>
    <contour>
      <point x="363" y="0" type="line"/>
      <point x="601" y="0" type="line"/>
      <point x="601" y="16" type="line"/>
      <point x="509" y="28" type="line"/>
      <point x="475" y="28" type="line"/>
      <point x="363" y="16" type="line"/>
    </contour>
    <contour>
      <point x="330" y="349" type="line"/>
      <point x="522" y="670" type="line"/>
      <point x="490" y="670" type="line"/>
      <point x="319" y="379" type="line"/>
      <point x="313" y="370" type="line"/>
      <point x="301" y="370" type="line"/>
    </contour>
    <contour>
      <point x="463" y="0" type="line"/>
      <point x="547" y="0" type="line"/>
      <point x="160" y="670" type="line"/>
      <point x="76" y="670" type="line"/>
    </contour>
    <contour>
      <point x="22" y="654" type="line"/>
      <point x="118" y="642" type="line"/>
      <point x="152" y="642" type="line"/>
      <point x="260" y="654" type="line"/>
      <point x="260" y="670" type="line"/>
      <point x="22" y="670" type="line"/>
    </contour>
    <contour>
      <point x="389" y="654" type="line"/>
      <point x="476" y="644" type="line"/>
      <point x="504" y="644" type="line"/>
      <point x="584" y="654" type="line"/>
      <point x="584" y="670" type="line"/>
      <point x="389" y="670" type="line"/>
    </contour>
  </outline>
</glyph>
<glyph name="uni001E" format="2">
  <advance width="995"/>
  <unicode hex="001E"/>
  <outline>
    <contour>
      <point x="329" y="0" type="line"/>
      <point x="591" y="0" type="line"/>
      <point x="591" y="16" type="line"/>
      <point x="475" y="28" type="line"/>
      <point x="445" y="28" type="line"/>
      <point x="329" y="16" type="line"/>
    </contour>
    <contour>
      <point x="420" y="0" type="curve"/>
      <point x="499" y="0" type="line"/>
      <point x="496" y="105"/>
      <point x="496" y="164"/>
      <point x="496" y="294" type="curve"/>
      <point x="424" y="294" type="line"/>
      <point x="424" y="164"/>
      <point x="424" y="105"/>
    </contour>
    <contour>
      <point x="943" y="700" type="line"/>
      <point x="983" y="700" type="line"/>
      <point x="991" y="883" type="line"/>
      <point x="935" y="883" type="line"/>
    </contour>
    <contour>
      <point x="453" y="209" type="line"/>
      <point x="467" y="209" type="line"/>
      <point x="683" y="670" type="line"/>
      <point x="653" y="670" type="line"/>
      <point x="482" y="301" type="line"/>
      <point x="480" y="296" type="line"/>
      <point x="489" y="296" type="line"/>
      <point x="309" y="670" type="line"/>
      <point x="230" y="670" type="line"/>
    </contour>
    <contour>
      <point x="174" y="654" type="line"/>
      <point x="266" y="642" type="line"/>
      <point x="298" y="642" type="line"/>
      <point x="406" y="654" type="line"/>
      <point x="406" y="670" type="line"/>
      <point x="174" y="670" type="line"/>
    </contour>
    <contour>
      <point x="556" y="654" type="line"/>
      <point x="643" y="644" type="line"/>
      <point x="664" y="644" type="line"/>
      <point x="744" y="654" type="line"/>
      <point x="744" y="670" type="line"/>
      <point x="556" y="670" type="line"/>
    </contour>
  </outline>
</glyph>
<glyph name="uni001E" format="2">
  <advance width="1036"/>
  <unicode hex="001E"/>
  <outline>
    <contour>
      <point x="969" y="519" type="curve" smooth="yes"/>
      <point x="929" y="519"/>
      <point x="905" y="551"/>
      <point x="905" y="585" type="curve" smooth="yes"/>
      <point x="905" y="619"/>
      <point x="929" y="651"/>
      <point x="969" y="651" type="curve" smooth="yes"/>
      <point x="1009" y="651"/>
      <point x="1033" y="619"/>
      <point x="1033" y="585" type="curve" smooth="yes"/>
      <point x="1033" y="551"/>
      <point x="1009" y="519"/>
    </contour>
    <contour>
      <point x="969" y="497" type="curve" smooth="yes"/>
      <point x="1012" y="497"/>
      <point x="1058" y="531"/>
      <point x="1058" y="585" type="curve" smooth="yes"/>
      <point x="1058" y="640"/>
      <point x="1012" y="674"/>
      <point x="969" y="674" type="curve" smooth="yes"/>
      <point x="926" y="674"/>
      <point x="880" y="640"/>
      <point x="880" y="585" type="curve" smooth="yes"/>
      <point x="880" y="531"/>
      <point x="926" y="497"/>
    </contour>
    <contour>
      <point x="508" y="-12" type="curve" smooth="yes"/>
      <point x="582" y="-12"/>
      <point x="639" y="24"/>
      <point x="673" y="100" type="curve"/>
      <point x="659" y="108" type="line"/>
      <point x="627" y="64"/>
      <point x="586" y="37"/>
      <point x="526" y="37" type="curve" smooth="yes"/>
      <point x="421" y="37"/>
      <point x="373" y="130"/>
      <point x="373" y="237" type="curve" smooth="yes"/>
      <point x="373" y="347"/>
      <point x="422" y="442"/>
      <point x="519" y="442" type="curve" smooth="yes"/>
      <point x="539" y="442"/>
      <point x="568" y="440"/>
      <point x="590" y="416" type="curve"/>
      <point x="566" y="441" type="line"/>
      <point x="585" y="361" type="line" smooth="yes"/>
      <point x="591" y="334"/>
      <point x="606" y="319"/>
      <point x="628" y="319" type="curve" smooth="yes"/>
      <point x="650" y="319"/>
      <point x="663" y="331"/>
      <point x="665" y="354" type="curve"/>
      <point x="653" y="418"/>
      <point x="599" y="464"/>
      <point x="519" y="464" type="curve" smooth="yes"/>
      <point x="409" y="464"/>
      <point x="302" y="380"/>
      <point x="302" y="220" type="curve" smooth="yes"/>
      <point x="302" y="72"/>
      <point x="386" y="-12"/>
    </contour>
  </outline>
</glyph>
<glyph name="uni001E" format="2">
  <advance width="693"/>
  <unicode hex="001E"/>
  <outline>
    <contour>
      <point x="35" y="0" type="line"/>
      <point x="269" y="0" type="line"/>
      <point x="269" y="16" type="line"/>
      <point x="158" y="28" type="line"/>
      <point x="131" y="28" type="line"/>
      <point x="35" y="16" type="line"/>
    </contour>
    <contour>
      <point x="105" y="0" type="curve"/>
      <point x="180" y="0" type="line"/>
      <point x="177" y="46"/>
      <point x="176" y="148"/>
      <point x="176" y="212" type="curve" smooth="yes"/>
      <point x="176" y="444" type="line"/>
      <point x="171" y="569"/>
      <point x="191" y="645"/>
      <point x="220" y="691" type="curve" smooth="yes"/>
      <point x="244" y="727"/>
      <point x="270" y="733"/>
      <point x="293" y="734" type="curve"/>
      <point x="293" y="738" type="line"/>
      <point x="245" y="738" type="line"/>
      <point x="245" y="734" type="line"/>
      <point x="281" y="705" type="line" smooth="yes"/>
      <point x="307" y="683"/>
      <point x="324" y="675"/>
      <point x="347" y="675" type="curve" smooth="yes"/>
      <point x="373" y="675"/>
      <point x="393" y="689"/>
      <point x="395" y="711" type="curve"/>
      <point x="386" y="739"/>
      <point x="349" y="754"/>
      <point x="314" y="754" type="curve" smooth="yes"/>
      <point x="274" y="754"/>
      <point x="232" y="740"/>
      <point x="200" y="710" type="curve" smooth="yes"/>
      <point x="146" y="657"/>
      <point x="115" y="588"/>
      <point x="110" y="454" type="curve" smooth="yes"/>
      <point x="109" y="430" type="line"/>
      <point x="129" y="460" type="line"/>
      <point x="31" y="444" type="line"/>
      <point x="31" y="428" type="line"/>
      <point x="109" y="428" type="line"/>
      <point x="109" y="212" type="line" smooth="yes"/>
      <point x="109" y="148"/>
      <point x="108" y="46"/>
    </contour>
    <contour>
      <point x="610" y="763" type="curve" smooth="yes"/>
      <point x="639" y="763"/>
      <point x="663" y="783"/>
      <point x="663" y="816" type="curve" smooth="yes"/>
      <point x="663" y="848"/>
      <point x="639" y="868"/>
      <point x="610" y="868" type="curve" smooth="yes"/>
      <point x="581" y="868"/>
      <point x="557" y="848"/>
      <point x="557" y="816" type="curve" smooth="yes"/>
      <point x="557" y="783"/>
      <point x="581" y="763"/>
    </contour>
    <contour>
      <point x="139" y="428" type="line"/>
      <point x="299" y="428" type="line"/>
      <point x="299" y="452" type="line"/>
      <point x="139" y="452" type="line"/>
    </contour>
  </outline>
</glyph>
<glyph name="uni001E" format="2">
  <advance width="1256"/>
  <unicode hex="001E"/>
  <outline>
    <contour>
      <point x="521" y="-259" type="curve" smooth="yes"/>
      <point x="680" y="-259"/>
      <point x="758" y="-173"/>
      <point x="758" y="-81" type="curve" smooth="yes"/>
      <point x="758" y="3"/>
      <point x="706" y="40"/>
      <point x="606" y="40" type="curve" smooth="yes"/>
      <point x="482" y="40" type="line" smooth="yes"/>
      <point x="432" y="40"/>
      <point x="410" y="56"/>
      <point x="410" y="91" type="curve" smooth="yes"/>
      <point x="410" y="114"/>
      <point x="417" y="138"/>
      <point x="446" y="165" type="curve"/>
      <point x="433" y="181" type="line"/>
      <point x="433" y="175" type="line"/>
      <point x="382" y="133"/>
      <point x="358" y="103"/>
      <point x="358" y="62" type="curve" smooth="yes"/>
      <point x="358" y="14"/>
      <point x="391" y="-15"/>
      <point x="441" y="-19" type="curve"/>
      <point x="441" y="-21" type="line"/>
      <point x="455" y="-25"/>
      <point x="474" y="-25"/>
      <point x="485" y="-25" type="curve" smooth="yes"/>
      <point x="593" y="-25" type="line" smooth="yes"/>
      <point x="665" y="-25"/>
      <point x="696" y="-55"/>
      <point x="696" y="-106" type="curve" smooth="yes"/>
      <point x="696" y="-178"/>
      <point x="639" y="-239"/>
      <point x="531" y="-239" type="curve" smooth="yes"/>
      <point x="454" y="-239"/>
      <point x="399" y="-201"/>
      <point x="399" y="-126" type="curve" smooth="yes"/>
      <point x="399" y="-61"/>
      <point x="436" y="-35"/>
      <point x="465" y="-13" type="curve"/>
      <point x="461" y="-7" type="line"/>
      <point x="380" y="-42"/>
      <point x="336" y="-84"/>
      <point x="336" y="-136" type="curve" smooth="yes"/>
      <point x="336" y="-210"/>
      <point x="392" y="-259"/>
    </contour>
    <contour>
      <point x="529" y="141" type="curve" smooth="yes"/>
      <point x="613" y="141"/>
      <point x="694" y="198"/>
      <point x="694" y="304" type="curve" smooth="yes"/>
      <point x="694" y="348"/>
      <point x="682" y="382"/>
      <point x="660" y="408" type="curve"/>
      <point x="656" y="412" type="line"/>
      <point x="625" y="447"/>
      <point x="578" y="464"/>
      <point x="529" y="464" type="curve" smooth="yes"/>
      <point x="446" y="464"/>
      <point x="364" y="407"/>
      <point x="364" y="301" type="curve" smooth="yes"/>
      <point x="364" y="194"/>
      <point x="446" y="141"/>
    </contour>
    <contour>
      <point x="529" y="161" type="curve" smooth="yes"/>
      <point x="471" y="161"/>
      <point x="433" y="208"/>
      <point x="433" y="301" type="curve" smooth="yes"/>
      <point x="433" y="393"/>
      <point x="471" y="444"/>
      <point x="529" y="444" type="curve" smooth="yes"/>
      <point x="587" y="444"/>
      <point x="626" y="397"/>
      <point x="626" y="304" type="curve" smooth="yes"/>
      <point x="626" y="212"/>
      <point x="587" y="161"/>
    </contour>
    <contour>
      <point x="1013" y="511" type="line"/>
      <point x="1233" y="511" type="line"/>
      <point x="1233" y="559" type="line"/>
      <point x="1013" y="559" type="line"/>
    </contour>
    <contour>
      <point x="643" y="395" type="line"/>
      <point x="763" y="395" type="line"/>
      <point x="763" y="456" type="line"/>
      <point x="755" y="464" type="line"/>
      <point x="646" y="412" type="line"/>
      <point x="642" y="412" type="line"/>
    </contour>
  </outline>
</glyph>
<glyph name="uni001E" format="2">
  <advance width="643"/>
  <unicode hex="001E"/>
  <outline>
    <contour>
      <point x="185" y="0" type="line"/>
      <point x="395" y="0" type="line"/>
      <point x="395" y="16" type="line"/>
      <point x="300" y="28" type="line"/>
      <point x="281" y="28" type="line"/>
      <point x="185" y="16" type="line"/>
    </contour>
    <contour>
      <point x="255" y="0" type="curve"/>
      <point x="330" y="0" type="line"/>
      <point x="327" y="46"/>
      <point x="326" y="148"/>
      <point x="326" y="212" type="curve" smooth="yes"/>
      <point x="326" y="330" type="line"/>
      <point x="330" y="456" type="line"/>
      <point x="322" y="464" type="line"/>
      <point x="181" y="420" type="line"/>
      <point x="181" y="406" type="line"/>
      <point x="256" y="389" type="line"/>
      <point x="258" y="348"/>
      <point x="259" y="314"/>
      <point x="259" y="258" type="curve" smooth="yes"/>
      <point x="259" y="212" type="line" smooth="yes"/>
      <point x="259" y="148"/>
      <point x="258" y="46"/>
    </contour>
    <contour>
      <point x="583" y="810" type="line"/>
      <point x="623" y="810" type="line"/>
      <point x="631" y="993" type="line"/>
      <point x="575" y="993" type="line"/>
    </contour>
    <contour>
      <point x="290" y="569" type="curve" smooth="yes"/>
      <point x="320" y="569"/>
      <point x="343" y="589"/>
      <point x="343" y="622" type="curve" smooth="yes"/>
      <point x="343" y="654"/>
      <point x="320" y="674"/>
      <point x="290" y="674" type="curve" smooth="yes"/>
      <point x="261" y="674"/>
      <point x="237" y="654"/>
      <point x="237" y="622" type="curve" smooth="yes"/>
      <point x="237" y="589"/>
      <point x="261" y="569"/>
    </contour>
  </outline>
</glyph>
<glyph name="uni001E" format="2">
  <advance width="1358"/>
  <unicode hex="001E"/>
  <outline>
    <contour>
      <point x="1183" y="528" type="curve" smooth="yes"/>
      <point x="1209" y="528"/>
      <point x="1231" y="548"/>
      <point x="1231" y="577" type="curve" smooth="yes"/>
      <point x="1231" y="606"/>
      <point x="1209" y="625"/>
      <point x="1183" y="625" type="curve" smooth="yes"/>
      <point x="1156" y="625"/>
      <point x="1134" y="606"/>
      <point x="1134" y="577" type="curve" smooth="yes"/>
      <point x="1134" y="548"/>
      <point x="1156" y="528"/>
    </contour>
    <contour>
      <point x="1363" y="528" type="curve" smooth="yes"/>
      <point x="1390" y="528"/>
      <point x="1412" y="548"/>
      <point x="1412" y="577" type="curve" smooth="yes"/>
      <point x="1412" y="606"/>
      <point x="1390" y="625"/>
      <point x="1363" y="625" type="curve" smooth="yes"/>
      <point x="1337" y="625"/>
      <point x="1315" y="606"/>
      <point x="1315" y="577" type="curve" smooth="yes"/>
      <point x="1315" y="548"/>
      <point x="1337" y="528"/>
    </contour>
    <contour>
      <point x="667" y="-12" type="curve" smooth="yes"/>
      <point x="776" y="-12"/>
      <point x="874" y="73"/>
      <point x="874" y="228" type="curve" smooth="yes"/>
      <point x="874" y="385"/>
      <point x="776" y="464"/>
      <point x="667" y="464" type="curve" smooth="yes"/>
      <point x="557" y="464"/>
      <point x="460" y="380"/>
      <point x="460" y="224" type="curve" smooth="yes"/>
      <point x="460" y="68"/>
      <point x="557" y="-12"/>
    </contour>
    <contour>
      <point x="667" y="9" type="curve" smooth="yes"/>
      <point x="584" y="9"/>
      <point x="533" y="85"/>
      <point x="533" y="224" type="curve" smooth="yes"/>
      <point x="533" y="364"/>
      <point x="584" y="443"/>
      <point x="667" y="443" type="curve" smooth="yes"/>
      <point x="749" y="443"/>
      <point x="800" y="367"/>
      <point x="800" y="228" type="curve" smooth="yes"/>
      <point x="800" y="88"/>
      <point x="749" y="9"/>
    </contour>
  </outline>
</glyph>
<glyph name="uni001E" format="2">
  <advance width="1073"/>
  <unicode hex="001E"/>
  <outline>
    <contour>
      <point x="1036" y="516" type="curve" smooth="yes"/>
      <point x="1065" y="516"/>
      <point x="1089" y="536"/>
      <point x="1089" y="569" type="curve" smooth="yes"/>
      <point x="1089" y="601"/>
      <point x="1065" y="621"/>
      <point x="1036" y="621" type="curve" smooth="yes"/>
      <point x="1007" y="621"/>
      <point x="983" y="601"/>
      <point x="983" y="569" type="curve" smooth="yes"/>
      <point x="983" y="536"/>
      <point x="1007" y="516"/>
    </contour>
    <contour>
      <point x="427" y="-12" type="curve" smooth="yes"/>
      <point x="500" y="-12"/>
      <point x="564" y="44"/>
      <point x="603" y="95" type="curve"/>
      <point x="607" y="95" type="line"/>
      <point x="599" y="111" type="line"/>
      <point x="548" y="64"/>
      <point x="504" y="37"/>
      <point x="456" y="37" type="curve" smooth="yes"/>
      <point x="398" y="37"/>
      <point x="374" y="60"/>
      <point x="374" y="147" type="curve" smooth="yes"/>
      <point x="374" y="330" type="line"/>
      <point x="378" y="456" type="line"/>
      <point x="370" y="464" type="line"/>
      <point x="238" y="432" type="line"/>
      <point x="238" y="418" type="line"/>
      <point x="328" y="399" type="line"/>
      <point x="307" y="429" type="line"/>
      <point x="307" y="129" type="line" smooth="yes"/>
      <point x="307" y="30"/>
      <point x="351" y="-12"/>
    </contour>
    <contour>
      <point x="593" y="-10" type="line"/>
      <point x="727" y="0" type="line"/>
      <point x="727" y="16" type="line"/>
      <point x="660" y="25" type="line"/>
      <point x="660" y="330" type="line"/>
      <point x="664" y="456" type="line"/>
      <point x="656" y="464" type="line"/>
      <point x="520" y="432" type="line"/>
      <point x="520" y="418" type="line"/>
      <point x="593" y="403" type="line"/>
      <point x="593" y="93" type="line"/>
      <point x="593" y="90" type="line"/>
    </contour>
  </outline>
</glyph>
<glyph name="uni001E" format="2">
  <advance width="922"/>
  <unicode hex="001E"/>
  <outline>
    <contour>
      <point x="224" y="-4" type="line"/>
      <point x="245" y="-4" type="line"/>
      <point x="417" y="452" type="line"/>
      <point x="389" y="452" type="line"/>
      <point x="253" y="82" type="line"/>
      <point x="249" y="70" type="line"/>
      <point x="266" y="70" type="line"/>
      <point x="123" y="452" type="line"/>
      <point x="44" y="452" type="line"/>
    </contour>
    <contour>
      <point x="4" y="436" type="line"/>
      <point x="91" y="424" type="line"/>
      <point x="111" y="424" type="line"/>
      <point x="211" y="437" type="line"/>
      <point x="211" y="452" type="line"/>
      <point x="4" y="452" type="line"/>
    </contour>
    <contour>
      <point x="672" y="539" type="line"/>
      <point x="892" y="539" type="line"/>
      <point x="892" y="587" type="line"/>
      <point x="672" y="587" type="line"/>
    </contour>
    <contour>
      <point x="313" y="437" type="line"/>
      <point x="389" y="428" type="line"/>
      <point x="401" y="428" type="line"/>
      <point x="461" y="436" type="line"/>
      <point x="461" y="452" type="line"/>
      <point x="313" y="452" type="line"/>
    </contour>
  </outline>
</glyph>
<glyph name="uni001E" format="2">
  <advance width="1457"/>
  <unicode hex="001E"/>
  <outline>
    <contour>
      <point x="1402" y="503" type="curve" smooth="yes"/>
      <point x="1362" y="503"/>
      <point x="1338" y="535"/>
      <point x="1338" y="569" type="curve" smooth="yes"/>
      <point x="1338" y="603"/>
      <point x="1362" y="635"/>
      <point x="1402" y="635" type="curve" smooth="yes"/>
      <point x="1442" y="635"/>
      <point x="1466" y="603"/>
      <point x="1466" y="569" type="curve" smooth="yes"/>
      <point x="1466" y="535"/>
      <point x="1442" y="503"/>
    </contour>
    <contour>
      <point x="1402" y="481" type="curve" smooth="yes"/>
      <point x="1445" y="481"/>
      <point x="1491" y="515"/>
      <point x="1491" y="569" type="curve" smooth="yes"/>
      <point x="1491" y="624"/>
      <point x="1445" y="658"/>
      <point x="1402" y="658" type="curve" smooth="yes"/>
      <point x="1359" y="658"/>
      <point x="1313" y="624"/>
      <point x="1313" y="569" type="curve" smooth="yes"/>
      <point x="1313" y="515"/>
      <point x="1359" y="481"/>
    </contour>
    <contour>
      <point x="498" y="-4" type="line"/>
      <point x="520" y="-4" type="line"/>
      <point x="648" y="363" type="line"/>
      <point x="651" y="371" type="line"/>
      <point x="639" y="371" type="line"/>
      <point x="770" y="-4" type="line"/>
      <point x="792" y="-4" type="line"/>
      <point x="948" y="452" type="line"/>
      <point x="919" y="452" type="line"/>
      <point x="798" y="83" type="line"/>
      <point x="794" y="70" type="line"/>
      <point x="812" y="70" type="line"/>
      <point x="681" y="452" type="line"/>
      <point x="651" y="452" type="line"/>
      <point x="527" y="83" type="line"/>
      <point x="522" y="70" type="line"/>
      <point x="540" y="70" type="line"/>
      <point x="417" y="452" type="line"/>
      <point x="338" y="452" type="line"/>
    </contour>
    <contour>
      <point x="298" y="436" type="line"/>
      <point x="385" y="424" type="line"/>
      <point x="405" y="424" type="line"/>
      <point x="493" y="437" type="line"/>
      <point x="493" y="452" type="line"/>
      <point x="298" y="452" type="line"/>
    </contour>
    <contour>
      <point x="572" y="437" type="line"/>
      <point x="648" y="428" type="line"/>
      <point x="685" y="428" type="line"/>
      <point x="761" y="437" type="line"/>
      <point x="761" y="452" type="line"/>
      <point x="572" y="452" type="line"/>
    </contour>
    <contour>
      <point x="843" y="437" type="line"/>
      <point x="916" y="428" type="line"/>
      <point x="928" y="428" type="line"/>
      <point x="988" y="436" type="line"/>
      <point x="988" y="452" type="line"/>
      <point x="843" y="452" type="line"/>
    </contour>
  </outline>
</glyph>
<glyph name="uni001E" format="2">
  <advance width="1426"/>
  <unicode hex="001E"/>
  <outline>
    <contour>
      <point x="492" y="-259" type="curve" smooth="yes"/>
      <point x="572" y="-259"/>
      <point x="618" y="-170"/>
      <point x="667" y="-40" type="curve" smooth="yes"/>
      <point x="852" y="452" type="line"/>
      <point x="824" y="452" type="line"/>
      <point x="748" y="246" type="line"/>
      <point x="672" y="39" type="line"/>
      <point x="671" y="35" type="line"/>
      <point x="642" y="-40" type="line" smooth="yes"/>
      <point x="603" y="-139"/>
      <point x="573" y="-205"/>
      <point x="520" y="-234" type="curve"/>
      <point x="541" y="-228" type="line"/>
      <point x="550" y="-224" type="line"/>
      <point x="526" y="-206" type="line" smooth="yes"/>
      <point x="507" y="-191"/>
      <point x="491" y="-182"/>
      <point x="468" y="-182" type="curve" smooth="yes"/>
      <point x="442" y="-182"/>
      <point x="422" y="-196"/>
      <point x="420" y="-218" type="curve"/>
      <point x="429" y="-246"/>
      <point x="461" y="-259"/>
    </contour>
    <contour>
      <point x="660" y="-6" type="line"/>
      <point x="676" y="25" type="line"/>
      <point x="701" y="70" type="line"/>
      <point x="558" y="452" type="line"/>
      <point x="479" y="452" type="line"/>
    </contour>
    <contour>
      <point x="1240" y="512" type="curve" smooth="yes"/>
      <point x="1266" y="512"/>
      <point x="1288" y="532"/>
      <point x="1288" y="561" type="curve" smooth="yes"/>
      <point x="1288" y="590"/>
      <point x="1266" y="609"/>
      <point x="1240" y="609" type="curve" smooth="yes"/>
      <point x="1213" y="609"/>
      <point x="1191" y="590"/>
      <point x="1191" y="561" type="curve" smooth="yes"/>
      <point x="1191" y="532"/>
      <point x="1213" y="512"/>
    </contour>
    <contour>
      <point x="1420" y="512" type="curve" smooth="yes"/>
      <point x="1447" y="512"/>
      <point x="1469" y="532"/>
      <point x="1469" y="561" type="curve" smooth="yes"/>
      <point x="1469" y="590"/>
      <point x="1447" y="609"/>
      <point x="1420" y="609" type="curve" smooth="yes"/>
      <point x="1394" y="609"/>
      <point x="1372" y="590"/>
      <point x="1372" y="561" type="curve" smooth="yes"/>
      <point x="1372" y="532"/>
      <point x="1394" y="512"/>
    </contour>
    <contour>
      <point x="439" y="436" type="line"/>
      <point x="526" y="424" type="line"/>
      <point x="546" y="424" type="line"/>
      <point x="646" y="437" type="line"/>
      <point x="646" y="452" type="line"/>
      <point x="439" y="452" type="line"/>
    </contour>
    <contour>
      <point x="744" y="437" type="line"/>
      <point x="820" y="428" type="line"/>
      <point x="832" y="428" type="line"/>
      <point x="896" y="436" type="line"/>
      <point x="896" y="452" type="line"/>
      <point x="744" y="452" type="line"/>
    </contour>
  </outline>
</glyph>
<glyph name="uni001E" format="2">
  <advance width="716"/>
  <unicode hex="001E"/>
  <outline>
    <contour>
      <point x="633" y="556" type="curve" smooth="yes"/>
      <point x="662" y="556"/>
      <point x="686" y="576"/>
      <point x="686" y="609" type="curve" smooth="yes"/>
      <point x="686" y="641"/>
      <point x="662" y="661"/>
      <point x="633" y="661" type="curve" smooth="yes"/>
      <point x="604" y="661"/>
      <point x="580" y="641"/>
      <point x="580" y="609" type="curve" smooth="yes"/>
      <point x="580" y="576"/>
      <point x="604" y="556"/>
    </contour>
    <contour>
      <point x="28" y="0" type="line"/>
      <point x="382" y="0" type="line"/>
      <point x="389" y="156" type="line"/>
      <point x="375" y="156" type="line"/>
      <point x="325" y="12" type="line"/>
      <point x="361" y="22" type="line"/>
      <point x="224" y="22" type="line"/>
      <point x="104" y="22" type="line"/>
      <point x="104" y="36" type="line"/>
      <point x="97" y="5" type="line"/>
      <point x="377" y="440" type="line"/>
      <point x="377" y="452" type="line"/>
      <point x="44" y="452" type="line"/>
      <point x="41" y="312" type="line"/>
      <point x="56" y="310" type="line"/>
      <point x="104" y="440" type="line"/>
      <point x="64" y="430" type="line"/>
      <point x="191" y="430" type="line"/>
      <point x="303" y="430" type="line"/>
      <point x="307" y="421" type="line"/>
      <point x="307" y="445" type="line"/>
      <point x="28" y="12" type="line"/>
    </contour>
  </outline>
</glyph>
